<?xml version="1.0" encoding="utf-8"?>
<!-- Generator: Adobe Illustrator 22.1.0, SVG Export Plug-In . SVG Version: 6.00 Build 0)  -->
<svg version="1.1" id="Ebene_1" xmlns="http://www.w3.org/2000/svg" xmlns:xlink="http://www.w3.org/1999/xlink" x="0px" y="0px"
	 viewBox="0 0 203 203" style="enable-background:new 0 0 203 203;" xml:space="preserve">
<style type="text/css">
	.st0{display:none;opacity:0.7;}
	.st1{fill:url(#SVGID_1_);}
	.st2{fill:url(#SVGID_2_);}
	.st3{fill:url(#SVGID_3_);}
	.st4{opacity:0.6;fill:url(#SVGID_4_);enable-background:new    ;}
	.st5{fill:url(#SVGID_5_);}
	.st6{fill:url(#SVGID_6_);}
	.st7{opacity:0.6;fill:url(#SVGID_7_);enable-background:new    ;}
	.st8{fill:url(#SVGID_8_);}
	.st9{opacity:0.6;fill:url(#SVGID_9_);enable-background:new    ;}
	.st10{fill:url(#SVGID_10_);}
	.st11{opacity:0.6;fill:url(#SVGID_11_);enable-background:new    ;}
</style>
<title>Bishop</title>
<g>
	<g id="Ebene_2_1_">
		<g id="Objects">
			<g class="st0">
				
					<image style="display:inline;overflow:visible;enable-background:new    ;" width="126" height="203" xlink:href="8FB55929.png"  transform="matrix(1 0 0 1 38.5 0)">
				</image>
			</g>
			
				<linearGradient id="SVGID_1_" gradientUnits="userSpaceOnUse" x1="84.21" y1="146.31" x2="116.96" y2="146.31" gradientTransform="matrix(1 0 0 -1 0 204)">
				<stop  offset="0" style="stop-color:#4C4C4C"/>
				<stop  offset="0.92" style="stop-color:#212121"/>
				<stop  offset="1" style="stop-color:#000000"/>
			</linearGradient>
			<path class="st1" d="M110.7,45.2l-3.4,16.5c-0.1,0.6-0.7,0.9-1.2,0.8s-0.9-0.7-0.8-1.2l0,0l3.8-18.3c-3.2-4.4-6.6-7.6-8.5-7.6
				c-4.4,0-16.4,16.4-16.4,26.5s7.3,18.3,16.4,18.3S117,71.9,117,61.8C117,56.9,114.1,50.4,110.7,45.2z"/>
			
				<linearGradient id="SVGID_2_" gradientUnits="userSpaceOnUse" x1="84.48" y1="99.73" x2="110.61" y2="99.73" gradientTransform="matrix(1 0 0 -1 0 204)">
				<stop  offset="0" style="stop-color:#707070"/>
				<stop  offset="0.22" style="stop-color:#4C4C4C"/>
				<stop  offset="0.88" style="stop-color:#212121"/>
				<stop  offset="1" style="stop-color:#0F0F0F"/>
			</linearGradient>
			<polygon class="st2" points="114.5,129.5 86.7,129.5 92.7,79 108.5,79 			"/>
			
				<linearGradient id="SVGID_3_" gradientUnits="userSpaceOnUse" x1="81.92" y1="76.165" x2="117.74" y2="76.165" gradientTransform="matrix(1 0 0 -1 0 204)">
				<stop  offset="0" style="stop-color:#4C4C4C"/>
				<stop  offset="0.92" style="stop-color:#212121"/>
				<stop  offset="1" style="stop-color:#000000"/>
			</linearGradient>
			<path class="st3" d="M117.8,129.4c0,1.1-0.9,2-2,2H85.4c-1.1,0-2-0.9-2-2v-3.2c0-1.1,0.9-2,2-2h30.4c1.1,0,2,0.9,2,2L117.8,129.4
				z"/>
			
				<linearGradient id="SVGID_4_" gradientUnits="userSpaceOnUse" x1="81.42" y1="77.13" x2="97.99" y2="77.13" gradientTransform="matrix(1 0 0 -1 0 204)">
				<stop  offset="0" style="stop-color:#595959"/>
				<stop  offset="0.57" style="stop-color:#525252;stop-opacity:0.45"/>
				<stop  offset="1" style="stop-color:#4C4C4C;stop-opacity:0"/>
			</linearGradient>
			<path class="st4" d="M83.4,129.5v-3.3c0-1.1,0.9-2,2-2h19.9c0,0-11.3,0.4-16,2S83.4,129.5,83.4,129.5z"/>
			
				<linearGradient id="SVGID_5_" gradientUnits="userSpaceOnUse" x1="83.15" y1="126.84" x2="111.45" y2="126.84" gradientTransform="matrix(1 0 0 -1 0 204)">
				<stop  offset="0" style="stop-color:#4C4C4C"/>
				<stop  offset="0.92" style="stop-color:#212121"/>
				<stop  offset="1" style="stop-color:#000000"/>
			</linearGradient>
			<path class="st5" d="M115.7,77.2c0,1-0.9,1.8-1.9,1.8H87.4c-1,0-1.8-0.8-1.9-1.8l0,0c0-1,0.8-1.9,1.9-1.9l0,0h26.4
				C114.8,75.3,115.7,76.1,115.7,77.2C115.7,77.2,115.7,77.2,115.7,77.2z"/>
			
				<linearGradient id="SVGID_6_" gradientUnits="userSpaceOnUse" x1="79.06" y1="69.515" x2="120.38" y2="69.515" gradientTransform="matrix(1 0 0 -1 0 204)">
				<stop  offset="0" style="stop-color:#4C4C4C"/>
				<stop  offset="0.92" style="stop-color:#212121"/>
				<stop  offset="1" style="stop-color:#000000"/>
			</linearGradient>
			<path class="st6" d="M120.4,136.3c0,1.3-1,2.3-2.3,2.3c0,0,0,0,0,0H83.1c-1.3,0-2.3-1-2.3-2.3c0,0,0,0,0,0v-3.7
				c0-1.3,1-2.3,2.3-2.3h35.1c1.3,0,2.3,1,2.3,2.3V136.3z"/>
			
				<linearGradient id="SVGID_7_" gradientUnits="userSpaceOnUse" x1="78.66" y1="70.63" x2="95.96" y2="70.63" gradientTransform="matrix(1 0 0 -1 0 204)">
				<stop  offset="0" style="stop-color:#595959"/>
				<stop  offset="0.57" style="stop-color:#525252;stop-opacity:0.45"/>
				<stop  offset="1" style="stop-color:#4C4C4C;stop-opacity:0"/>
			</linearGradient>
			<path class="st7" d="M80.7,136.4v-3.8c0-1.3,1-2.3,2.3-2.3h22.2c0,0-12.3,0.5-17.7,2.3S80.7,136.4,80.7,136.4z"/>
			
				<linearGradient id="SVGID_8_" gradientUnits="userSpaceOnUse" x1="75.94" y1="61.46" x2="123.24" y2="61.46" gradientTransform="matrix(1 0 0 -1 0 204)">
				<stop  offset="0" style="stop-color:#4C4C4C"/>
				<stop  offset="0.92" style="stop-color:#212121"/>
				<stop  offset="1" style="stop-color:#000000"/>
			</linearGradient>
			<path class="st8" d="M123.3,144.6c0,1.5-1.2,2.6-2.7,2.6c0,0,0,0,0,0H80.5c-1.5,0-2.6-1.2-2.6-2.6c0,0,0,0,0,0v-4.2
				c0-1.5,1.2-2.6,2.7-2.6h40.2c1.5,0,2.7,1.2,2.7,2.6L123.3,144.6z"/>
			
				<linearGradient id="SVGID_9_" gradientUnits="userSpaceOnUse" x1="75.24" y1="62.74" x2="98.11" y2="62.74" gradientTransform="matrix(1 0 0 -1 0 204)">
				<stop  offset="0" style="stop-color:#595959"/>
				<stop  offset="0.57" style="stop-color:#525252;stop-opacity:0.45"/>
				<stop  offset="1" style="stop-color:#4C4C4C;stop-opacity:0"/>
			</linearGradient>
			<path class="st9" d="M77.9,144.7v-4.3c0-1.5,1.2-2.6,2.6-2.7h27.6c0,0-16.2,0.6-22.4,2.7S77.9,144.7,77.9,144.7z"/>
			
				<linearGradient id="SVGID_10_" gradientUnits="userSpaceOnUse" x1="71.72" y1="48.97" x2="127.13" y2="48.97" gradientTransform="matrix(1 0 0 -1 0 204)">
				<stop  offset="0" style="stop-color:#4C4C4C"/>
				<stop  offset="0.92" style="stop-color:#212121"/>
				<stop  offset="1" style="stop-color:#000000"/>
			</linearGradient>
			<path class="st10" d="M127.2,162.2c0,1.7-1.4,3.1-3.1,3.1c0,0,0,0,0,0h-47c-1.7,0-3.1-1.4-3.1-3.1c0,0,0,0,0,0v-14.4
				c0-1.7,1.4-3.1,3.1-3.1l0,0h47c1.7,0,3.1,1.4,3.1,3.1l0,0V162.2z"/>
			
				<linearGradient id="SVGID_11_" gradientUnits="userSpaceOnUse" x1="71.16" y1="55.185" x2="97.03" y2="55.185" gradientTransform="matrix(1 0 0 -1 0 204)">
				<stop  offset="0" style="stop-color:#595959"/>
				<stop  offset="0.57" style="stop-color:#525252;stop-opacity:0.45"/>
				<stop  offset="1" style="stop-color:#4C4C4C;stop-opacity:0"/>
			</linearGradient>
			<path class="st11" d="M74,152.9v-5c0-1.7,1.4-3.1,3.1-3.1l0,0h31c0,0-17.7,0.7-25,3.1S74,152.9,74,152.9z"/>
		</g>
	</g>
</g>
</svg>
