<?xml version="1.0" encoding="utf-8"?>
<!-- Generator: Adobe Illustrator 22.1.0, SVG Export Plug-In . SVG Version: 6.00 Build 0)  -->
<svg version="1.1" id="Ebene_1" xmlns="http://www.w3.org/2000/svg" xmlns:xlink="http://www.w3.org/1999/xlink" x="0px" y="0px"
	 viewBox="0 0 188 188" style="enable-background:new 0 0 188 188;" xml:space="preserve">
<style type="text/css">
	.st0{opacity:0.7;}
	.st1{fill:url(#SVGID_1_);}
	.st2{fill:#333333;}
	.st3{fill:url(#SVGID_2_);}
	.st4{opacity:0.6;fill:url(#SVGID_3_);enable-background:new    ;}
	.st5{fill:url(#SVGID_4_);}
	.st6{opacity:0.6;fill:url(#SVGID_5_);enable-background:new    ;}
	.st7{fill:url(#SVGID_6_);}
	.st8{opacity:0.6;fill:url(#SVGID_7_);enable-background:new    ;}
	.st9{fill:url(#SVGID_8_);}
	.st10{opacity:0.6;fill:url(#SVGID_9_);enable-background:new    ;}
</style>
<title>Knight</title>
<g>
	<g id="Ebene_2_1_">
		<g id="Objects">
			<g class="st0">
				
					<image style="overflow:visible;enable-background:new    ;" width="134" height="188" xlink:href="8AF622E8.png"  transform="matrix(1 0 0 1 27 0)">
				</image>
			</g>
			
				<linearGradient id="SVGID_1_" gradientUnits="userSpaceOnUse" x1="61.9637" y1="118.4718" x2="117.979" y2="118.4718" gradientTransform="matrix(1 0 0 -1 0 190)">
				<stop  offset="0" style="stop-color:#4C4C4C"/>
				<stop  offset="0.92" style="stop-color:#212121"/>
				<stop  offset="1" style="stop-color:#000000"/>
			</linearGradient>
			<path class="st1" d="M114,88.9c-0.2-1.6,1.5-8.4-3.8-11.3S93.3,67.3,93.1,65.2s4.5-4.3,8.2-3.9s7.5,4.2,9.5,3.9s2.1-2.3,3.4-2.5
				c1.1-0.2,1.8-1.3,1.5-2.4c-0.1-0.2-0.2-0.5-0.3-0.7c-0.8-1-8.8-5-7.5-5.6s7.4,4.3,8.3,3s3-2.5,1.3-5.4s-1.5-6.4-4.6-7.6
				s-16-3.3-18.4-4.4s-7.4-0.3-10.1-0.7c-2.7-0.5-10.1-2.8-14-3.3c-3.9-0.5-3.2,1.6-0.7,3.5c0.3,0.2-0.7,1.3-1.8,3.3
				c-0.3-0.1-0.6-0.2-0.9-0.2c-1.5,0-2.7,1.2-2.7,2.7c0,0,0,0,0,0c0,0.5,0.2,1,0.4,1.5c-1.4,0.6-2,2.1-1.5,3.5
				c0.1,0.3,0.3,0.6,0.5,0.8c-0.7,0.5-1.2,1.3-1.2,2.2c0,0.9,0.4,1.7,1.2,2.2c-1.4,0.6-2,2.1-1.5,3.5c0.2,0.5,0.6,0.9,1,1.2
				c-1,1.1-1,2.8,0.1,3.8C63.1,64.1,63,64.5,63,65c0,1.1,0.6,2,1.6,2.4c-0.2,0.4-0.3,0.9-0.3,1.3c0,1,0.5,1.9,1.4,2.4
				c-0.8,1.3-0.3,2.9,1,3.7c0.1,0.1,0.2,0.1,0.3,0.2c0,0.1,0,0.1,0,0.2c0,1.3,0.9,2.4,2.1,2.7v0.1c0,1.4,1,2.5,2.4,2.7
				c0.5,0.8,1.1,1.5,1.7,2.2c7.4,8.7,1.8,20.8,2.3,22.8c0.4,1.9,3.7,1.7,12.4,1.9s22,0.1,25.3-2.3s4.7-6.1,4.1-9.2
				S114.2,90.5,114,88.9z"/>
			<polygon class="st2" points="70.3,128.6 70.3,128.6 70.3,128.6 			"/>
			
				<linearGradient id="SVGID_2_" gradientUnits="userSpaceOnUse" x1="73.54" y1="81.33" x2="113.22" y2="81.33" gradientTransform="matrix(1 0 0 -1 0 190)">
				<stop  offset="0" style="stop-color:#4C4C4C"/>
				<stop  offset="0.92" style="stop-color:#212121"/>
				<stop  offset="1" style="stop-color:#000000"/>
			</linearGradient>
			<path class="st3" d="M113.3,110.4c0,1.2-1,2.2-2.2,2.2c0,0,0,0,0,0H77.4c-1.2,0-2.2-1-2.2-2.2c0,0,0,0,0,0v-3.5
				c0-1.2,1-2.2,2.2-2.2c0,0,0,0,0,0h33.7c1.2,0,2.2,1,2.2,2.2c0,0,0,0,0,0L113.3,110.4z"/>
			
				<linearGradient id="SVGID_3_" gradientUnits="userSpaceOnUse" x1="72.98" y1="82.4" x2="91.34" y2="82.4" gradientTransform="matrix(1 0 0 -1 0 190)">
				<stop  offset="0" style="stop-color:#595959"/>
				<stop  offset="0.57" style="stop-color:#525252;stop-opacity:0.45"/>
				<stop  offset="1" style="stop-color:#4C4C4C;stop-opacity:0"/>
			</linearGradient>
			<path class="st4" d="M75.1,110.5v-3.6c0-1.2,1-2.2,2.2-2.2c0,0,0,0,0,0h22c0,0-12.5,0.5-17.7,2.2
				C76.5,108.7,75.1,110.5,75.1,110.5z"/>
			
				<linearGradient id="SVGID_4_" gradientUnits="userSpaceOnUse" x1="70.36" y1="73.965" x2="116.14" y2="73.965" gradientTransform="matrix(1 0 0 -1 0 190)">
				<stop  offset="0" style="stop-color:#4C4C4C"/>
				<stop  offset="0.92" style="stop-color:#212121"/>
				<stop  offset="1" style="stop-color:#000000"/>
			</linearGradient>
			<path class="st5" d="M116.2,118.1c0,1.4-1.1,2.6-2.5,2.6c0,0,0,0,0,0H74.8c-1.4,0-2.6-1.1-2.6-2.5c0,0,0,0,0,0V114
				c0-1.4,1.1-2.6,2.6-2.6h38.8c1.4,0,2.6,1.1,2.6,2.5c0,0,0,0,0,0V118.1z"/>
			
				<linearGradient id="SVGID_5_" gradientUnits="userSpaceOnUse" x1="69.93" y1="75.2" x2="89.09" y2="75.2" gradientTransform="matrix(1 0 0 -1 0 190)">
				<stop  offset="0" style="stop-color:#595959"/>
				<stop  offset="0.57" style="stop-color:#525252;stop-opacity:0.45"/>
				<stop  offset="1" style="stop-color:#4C4C4C;stop-opacity:0"/>
			</linearGradient>
			<path class="st6" d="M72.2,118.2V114c0-1.4,1.1-2.6,2.6-2.6h24.6c0,0-13.6,0.6-19.6,2.6S72.2,118.2,72.2,118.2z"/>
			
				<linearGradient id="SVGID_6_" gradientUnits="userSpaceOnUse" x1="66.91" y1="65.0399" x2="119.31" y2="65.0399" gradientTransform="matrix(1 0 0 -1 0 190)">
				<stop  offset="0" style="stop-color:#4C4C4C"/>
				<stop  offset="0.92" style="stop-color:#212121"/>
				<stop  offset="1" style="stop-color:#000000"/>
			</linearGradient>
			<path class="st7" d="M119.4,127.3c0,1.6-1.3,2.9-3,2.9c0,0,0,0,0,0H72c-1.6,0-3-1.2-3-2.9c0,0,0,0,0-0.1v-4.7
				c0-1.6,1.3-2.9,2.9-2.9c0,0,0,0,0.1,0h44.4c1.6,0,3,1.3,3,2.9c0,0,0,0,0,0.1L119.4,127.3z"/>
			
				<linearGradient id="SVGID_7_" gradientUnits="userSpaceOnUse" x1="66.13" y1="66.4553" x2="91.47" y2="66.4553" gradientTransform="matrix(1 0 0 -1 0 190)">
				<stop  offset="0" style="stop-color:#595959"/>
				<stop  offset="0.57" style="stop-color:#525252;stop-opacity:0.45"/>
				<stop  offset="1" style="stop-color:#4C4C4C;stop-opacity:0"/>
			</linearGradient>
			<path class="st8" d="M69,127.4v-4.8c0-1.6,1.3-2.9,2.9-2.9c0,0,0,0,0.1,0h30.5c0,0-17.9,0.6-24.8,3S69,127.4,69,127.4z"/>
			
				<linearGradient id="SVGID_8_" gradientUnits="userSpaceOnUse" x1="62.23" y1="51.2" x2="123.62" y2="51.2" gradientTransform="matrix(1 0 0 -1 0 190)">
				<stop  offset="0" style="stop-color:#4C4C4C"/>
				<stop  offset="0.92" style="stop-color:#212121"/>
				<stop  offset="1" style="stop-color:#000000"/>
			</linearGradient>
			<path class="st9" d="M123.7,146.8c0,1.9-1.6,3.4-3.4,3.4H68.2c-1.9,0-3.4-1.5-3.5-3.4v0v-15.9c0-1.9,1.5-3.4,3.4-3.4c0,0,0,0,0,0
				h52.1c1.9,0,3.4,1.5,3.4,3.4L123.7,146.8z"/>
			
				<linearGradient id="SVGID_9_" gradientUnits="userSpaceOnUse" x1="61.61" y1="58.105" x2="90.27" y2="58.105" gradientTransform="matrix(1 0 0 -1 0 190)">
				<stop  offset="0" style="stop-color:#595959"/>
				<stop  offset="0.57" style="stop-color:#525252;stop-opacity:0.45"/>
				<stop  offset="1" style="stop-color:#4C4C4C;stop-opacity:0"/>
			</linearGradient>
			<path class="st10" d="M64.7,136.4v-5.6c0-1.9,1.5-3.4,3.4-3.4c0,0,0,0,0,0h34.3c0,0-19.6,0.7-27.7,3.5S64.7,136.4,64.7,136.4z"/>
		</g>
	</g>
</g>
</svg>
