<?xml version="1.0" encoding="utf-8"?>
<!-- Generator: Adobe Illustrator 22.1.0, SVG Export Plug-In . SVG Version: 6.00 Build 0)  -->
<svg version="1.1" id="Ebene_1" xmlns="http://www.w3.org/2000/svg" xmlns:xlink="http://www.w3.org/1999/xlink" x="0px" y="0px"
	 viewBox="0 0 174 174" style="enable-background:new 0 0 174 174;" xml:space="preserve">
<style type="text/css">
	.st0{fill:#333333;}
	.st1{opacity:0.7;}
	.st2{fill:url(#SVGID_1_);}
	.st3{fill:url(#SVGID_2_);}
	.st4{fill:url(#SVGID_3_);}
	.st5{opacity:0.6;fill:url(#SVGID_4_);enable-background:new    ;}
	.st6{fill:url(#SVGID_5_);}
	.st7{fill:url(#SVGID_6_);}
	.st8{opacity:0.6;fill:url(#SVGID_7_);enable-background:new    ;}
	.st9{fill:url(#SVGID_8_);}
	.st10{opacity:0.6;fill:url(#SVGID_9_);enable-background:new    ;}
	.st11{fill:url(#SVGID_10_);}
	.st12{opacity:0.6;fill:url(#SVGID_11_);enable-background:new    ;}
</style>
<title>Pawn</title>
<g>
	<g id="Ebene_2_1_">
		<g id="Objects">
			<polygon class="st0" points="66.1,119.2 66.1,119.2 66.1,119.2 			"/>
			<g class="st1">
				
					<image style="overflow:visible;enable-background:new    ;" width="121" height="174" xlink:href="598A6F8C.png"  transform="matrix(1 0 0 1 26.5 0)">
				</image>
			</g>
			
				<linearGradient id="SVGID_1_" gradientUnits="userSpaceOnUse" x1="77.6808" y1="140.744" x2="91.3008" y2="119.804" gradientTransform="matrix(1 0 0 -1 0 176)">
				<stop  offset="0" style="stop-color:#808080"/>
				<stop  offset="0.26" style="stop-color:#4C4C4C"/>
				<stop  offset="0.92" style="stop-color:#212121"/>
				<stop  offset="1" style="stop-color:#000000"/>
			</linearGradient>
			<path class="st2" d="M98.3,47.6c0,6.9-5.6,12.5-12.5,12.5s-12.5-5.6-12.5-12.5s5.6-12.5,12.5-12.5c0,0,0,0,0,0
				C92.6,35.1,98.3,40.7,98.3,47.6C98.3,47.6,98.3,47.6,98.3,47.6z"/>
			
				<linearGradient id="SVGID_2_" gradientUnits="userSpaceOnUse" x1="71.11" y1="94.65" x2="94.86" y2="94.65" gradientTransform="matrix(1 0 0 -1 0 176)">
				<stop  offset="0" style="stop-color:#707070"/>
				<stop  offset="0.22" style="stop-color:#4C4C4C"/>
				<stop  offset="0.88" style="stop-color:#212121"/>
				<stop  offset="1" style="stop-color:#0F0F0F"/>
			</linearGradient>
			<polygon class="st3" points="98.4,104.3 73.1,104.3 78.5,58.4 92.9,58.4 			"/>
			
				<linearGradient id="SVGID_3_" gradientUnits="userSpaceOnUse" x1="68.78" y1="73.265" x2="101.34" y2="73.265" gradientTransform="matrix(1 0 0 -1 0 176)">
				<stop  offset="0" style="stop-color:#4C4C4C"/>
				<stop  offset="0.92" style="stop-color:#212121"/>
				<stop  offset="1" style="stop-color:#000000"/>
			</linearGradient>
			<path class="st4" d="M101.4,104.2c0,1-0.8,1.8-1.8,1.8H71.9c-1,0-1.8-0.8-1.8-1.8v-2.9c0-1,0.8-1.8,1.8-1.8h27.6
				c1,0,1.8,0.8,1.8,1.8c0,0,0,0,0,0V104.2z"/>
			
				<linearGradient id="SVGID_4_" gradientUnits="userSpaceOnUse" x1="68.32" y1="74.13" x2="83.39" y2="74.13" gradientTransform="matrix(1 0 0 -1 0 176)">
				<stop  offset="0" style="stop-color:#595959"/>
				<stop  offset="0.57" style="stop-color:#525252;stop-opacity:0.45"/>
				<stop  offset="1" style="stop-color:#4C4C4C;stop-opacity:0"/>
			</linearGradient>
			<path class="st5" d="M70.1,104.3v-3c0-1,0.8-1.8,1.8-1.8H90c0,0-10.2,0.4-14.5,1.8S70.1,104.3,70.1,104.3z"/>
			
				<linearGradient id="SVGID_5_" gradientUnits="userSpaceOnUse" x1="69.9" y1="119.2907" x2="95.62" y2="119.2907" gradientTransform="matrix(1 0 0 -1 0 176)">
				<stop  offset="0" style="stop-color:#4C4C4C"/>
				<stop  offset="0.92" style="stop-color:#212121"/>
				<stop  offset="1" style="stop-color:#000000"/>
			</linearGradient>
			<path class="st6" d="M99.5,56.7c0,0.9-0.8,1.7-1.7,1.7h-24c-0.9,0-1.7-0.7-1.7-1.7c0,0,0,0,0,0l0,0c0-0.9,0.7-1.7,1.6-1.7h24
				c0.9,0,1.7,0.7,1.8,1.6C99.5,56.7,99.5,56.7,99.5,56.7z"/>
			
				<linearGradient id="SVGID_6_" gradientUnits="userSpaceOnUse" x1="66.18" y1="67.18" x2="103.73" y2="67.18" gradientTransform="matrix(1 0 0 -1 0 176)">
				<stop  offset="0" style="stop-color:#4C4C4C"/>
				<stop  offset="0.92" style="stop-color:#212121"/>
				<stop  offset="1" style="stop-color:#000000"/>
			</linearGradient>
			<path class="st7" d="M103.8,110.5c0,1.2-1,2.1-2.1,2.1c0,0,0,0,0,0H69.8c-1.2,0-2.1-0.9-2.1-2.1c0,0,0,0,0,0v-3.3
				c0-1.2,1-2.1,2.1-2.1c0,0,0,0,0,0h31.9c1.2,0,2.1,0.9,2.1,2.1V110.5z"/>
			
				<linearGradient id="SVGID_7_" gradientUnits="userSpaceOnUse" x1="65.82" y1="68.195" x2="81.54" y2="68.195" gradientTransform="matrix(1 0 0 -1 0 176)">
				<stop  offset="0" style="stop-color:#595959"/>
				<stop  offset="0.57" style="stop-color:#525252;stop-opacity:0.45"/>
				<stop  offset="1" style="stop-color:#4C4C4C;stop-opacity:0"/>
			</linearGradient>
			<path class="st8" d="M67.7,110.6v-3.4c0-1.2,1-2.1,2.1-2.1c0,0,0,0,0,0H90c0,0-11.2,0.4-16.1,2.1S67.7,110.6,67.7,110.6z"/>
			
				<linearGradient id="SVGID_8_" gradientUnits="userSpaceOnUse" x1="63.35" y1="59.86" x2="106.34" y2="59.86" gradientTransform="matrix(1 0 0 -1 0 176)">
				<stop  offset="0" style="stop-color:#4C4C4C"/>
				<stop  offset="0.92" style="stop-color:#212121"/>
				<stop  offset="1" style="stop-color:#000000"/>
			</linearGradient>
			<path class="st9" d="M106.4,118.1c0,1.3-1.1,2.4-2.4,2.4c0,0,0,0,0,0H67.5c-1.3,0-2.4-1.1-2.4-2.4v-3.8c0-1.3,1.1-2.4,2.4-2.4
				H104c1.3,0,2.4,1.1,2.4,2.4c0,0,0,0,0,0V118.1z"/>
			
				<linearGradient id="SVGID_9_" gradientUnits="userSpaceOnUse" x1="62.71" y1="61.025" x2="83.49" y2="61.025" gradientTransform="matrix(1 0 0 -1 0 176)">
				<stop  offset="0" style="stop-color:#595959"/>
				<stop  offset="0.57" style="stop-color:#525252;stop-opacity:0.45"/>
				<stop  offset="1" style="stop-color:#4C4C4C;stop-opacity:0"/>
			</linearGradient>
			<path class="st10" d="M65.1,118.1v-3.9c0-1.3,1.1-2.4,2.4-2.4h25c0,0-14.7,0.5-20.4,2.4S65.1,118.1,65.1,118.1z"/>
			
				<linearGradient id="SVGID_10_" gradientUnits="userSpaceOnUse" x1="59.51" y1="48.5048" x2="109.87" y2="48.5048" gradientTransform="matrix(1 0 0 -1 0 176)">
				<stop  offset="0" style="stop-color:#4C4C4C"/>
				<stop  offset="0.92" style="stop-color:#212121"/>
				<stop  offset="1" style="stop-color:#000000"/>
			</linearGradient>
			<path class="st11" d="M109.9,134c0,1.6-1.3,2.8-2.8,2.8c0,0,0,0,0,0H64.4c-1.6,0-2.8-1.2-2.9-2.8c0,0,0,0,0,0v-13
				c0-1.6,1.3-2.8,2.8-2.8h42.8c1.6,0,2.8,1.3,2.8,2.8V134z"/>
			
				<linearGradient id="SVGID_11_" gradientUnits="userSpaceOnUse" x1="59" y1="54.145" x2="82.51" y2="54.145" gradientTransform="matrix(1 0 0 -1 0 176)">
				<stop  offset="0" style="stop-color:#595959"/>
				<stop  offset="0.57" style="stop-color:#525252;stop-opacity:0.45"/>
				<stop  offset="1" style="stop-color:#4C4C4C;stop-opacity:0"/>
			</linearGradient>
			<path class="st12" d="M61.5,125.5V121c0-1.6,1.3-2.8,2.8-2.8h28.2c0,0-16.1,0.6-22.7,2.9C63.2,123.3,61.5,125.5,61.5,125.5z"/>
		</g>
	</g>
</g>
</svg>
