<?xml version="1.0" encoding="utf-8"?>
<!-- Generator: Adobe Illustrator 22.1.0, SVG Export Plug-In . SVG Version: 6.00 Build 0)  -->
<svg version="1.1" id="Ebene_1" xmlns="http://www.w3.org/2000/svg" xmlns:xlink="http://www.w3.org/1999/xlink" x="0px" y="0px"
	 viewBox="0 0 210 210" style="enable-background:new 0 0 210 210;" xml:space="preserve">
<style type="text/css">
	.st0{opacity:0.7;}
	.st1{fill:url(#SVGID_1_);}
	.st2{fill:url(#SVGID_2_);}
	.st3{fill:url(#SVGID_3_);}
	.st4{opacity:0.6;fill:url(#SVGID_4_);enable-background:new    ;}
	.st5{fill:url(#SVGID_5_);}
	.st6{fill:url(#SVGID_6_);}
	.st7{opacity:0.6;fill:url(#SVGID_7_);enable-background:new    ;}
	.st8{fill:url(#SVGID_8_);}
	.st9{opacity:0.6;fill:url(#SVGID_9_);enable-background:new    ;}
	.st10{fill:url(#SVGID_10_);}
	.st11{opacity:0.6;fill:url(#SVGID_11_);enable-background:new    ;}
</style>
<title>Queen</title>
<g>
	<g id="Ebene_2_1_">
		<g id="Objects">
			<g class="st0">
				
					<image style="overflow:visible;enable-background:new    ;" width="132" height="210" xlink:href="F5D260DF.png"  transform="matrix(1 0 0 1 39 0)">
				</image>
			</g>
			
				<linearGradient id="SVGID_1_" gradientUnits="userSpaceOnUse" x1="79.3396" y1="157.2546" x2="127.7983" y2="157.2546" gradientTransform="matrix(1 0 0 -1 0 212)">
				<stop  offset="0" style="stop-color:#4C4C4C"/>
				<stop  offset="0.92" style="stop-color:#212121"/>
				<stop  offset="1" style="stop-color:#000000"/>
			</linearGradient>
			<path class="st1" d="M127.3,46.5c-2.3-0.5-5.4,2.7-7.8,2.6s-2.9-2.2-5.8-3.8c-1.7-0.9-3.5-1.7-5.4-2.4c1.3-2.6,0.2-5.6-2.3-6.9
				c-2.6-1.3-5.6-0.2-6.9,2.3c-0.7,1.4-0.7,3.1,0,4.6c-1.8,0.7-3.6,1.5-5.4,2.4c-3,1.6-3.5,3.7-5.8,3.8c-2.4,0.1-5.6-3.1-7.8-2.6
				c-2.3,0.5,3.3,7.7,5.8,13.3c2.6,5.5,3.3,13,3.3,13l14.6,1.2l14.6-1.2c0,0,0.7-7.4,3.3-13S129.5,47,127.3,46.5z"/>
			
				<linearGradient id="SVGID_2_" gradientUnits="userSpaceOnUse" x1="85.63" y1="107.85" x2="114.75" y2="107.85" gradientTransform="matrix(1 0 0 -1 0 212)">
				<stop  offset="0" style="stop-color:#707070"/>
				<stop  offset="0.22" style="stop-color:#4C4C4C"/>
				<stop  offset="0.88" style="stop-color:#212121"/>
				<stop  offset="1" style="stop-color:#0F0F0F"/>
			</linearGradient>
			<polygon class="st2" points="119.1,132.3 88.1,132.3 94.7,76 112.4,76 			"/>
			
				<linearGradient id="SVGID_3_" gradientUnits="userSpaceOnUse" x1="82.78" y1="81.58" x2="122.7" y2="81.58" gradientTransform="matrix(1 0 0 -1 0 212)">
				<stop  offset="0" style="stop-color:#4C4C4C"/>
				<stop  offset="0.92" style="stop-color:#212121"/>
				<stop  offset="1" style="stop-color:#000000"/>
			</linearGradient>
			<path class="st3" d="M122.8,132.2c0,1.2-1,2.2-2.2,2.2c0,0,0,0,0,0H86.6c-1.2,0-2.2-1-2.2-2.2l0,0v-3.6c0-1.2,1-2.2,2.2-2.2h33.9
				c1.2,0,2.2,1,2.3,2.2c0,0,0,0,0,0V132.2z"/>
			
				<linearGradient id="SVGID_4_" gradientUnits="userSpaceOnUse" x1="82.22" y1="82.66" x2="100.69" y2="82.66" gradientTransform="matrix(1 0 0 -1 0 212)">
				<stop  offset="0" style="stop-color:#595959"/>
				<stop  offset="0.57" style="stop-color:#525252;stop-opacity:0.45"/>
				<stop  offset="1" style="stop-color:#4C4C4C;stop-opacity:0"/>
			</linearGradient>
			<path class="st4" d="M84.4,132.3v-3.6c0-1.2,1-2.2,2.2-2.2h22.1c0,0-12.6,0.5-17.8,2.3C85.7,130.5,84.4,132.3,84.4,132.3z"/>
			
				<linearGradient id="SVGID_5_" gradientUnits="userSpaceOnUse" x1="84.14" y1="138.04" x2="115.68" y2="138.04" gradientTransform="matrix(1 0 0 -1 0 212)">
				<stop  offset="0" style="stop-color:#4C4C4C"/>
				<stop  offset="0.92" style="stop-color:#212121"/>
				<stop  offset="1" style="stop-color:#000000"/>
			</linearGradient>
			<path class="st5" d="M120.4,74c0,1.1-1,2-2.1,2H88.8c-1.1,0-2-0.9-2.1-2l0,0c0-1.1,0.9-2.1,2.1-2.1h29.5
				C119.5,71.9,120.4,72.8,120.4,74C120.4,74,120.4,74,120.4,74z"/>
			
				<linearGradient id="SVGID_6_" gradientUnits="userSpaceOnUse" x1="79.59" y1="74.17" x2="125.63" y2="74.17" gradientTransform="matrix(1 0 0 -1 0 212)">
				<stop  offset="0" style="stop-color:#4C4C4C"/>
				<stop  offset="0.92" style="stop-color:#212121"/>
				<stop  offset="1" style="stop-color:#000000"/>
			</linearGradient>
			<path class="st6" d="M125.7,139.9c0,1.4-1.2,2.6-2.6,2.6c0,0,0,0,0,0H84c-1.4,0-2.6-1.1-2.6-2.6v-4.1c0-1.4,1.2-2.6,2.6-2.6h39.1
				c1.4,0,2.6,1.1,2.6,2.6c0,0,0,0,0,0V139.9z"/>
			
				<linearGradient id="SVGID_7_" gradientUnits="userSpaceOnUse" x1="79.15" y1="75.395" x2="98.42" y2="75.395" gradientTransform="matrix(1 0 0 -1 0 212)">
				<stop  offset="0" style="stop-color:#595959"/>
				<stop  offset="0.57" style="stop-color:#525252;stop-opacity:0.45"/>
				<stop  offset="1" style="stop-color:#4C4C4C;stop-opacity:0"/>
			</linearGradient>
			<path class="st7" d="M81.4,140v-4.2c0-1.4,1.1-2.6,2.5-2.6c0,0,0,0,0,0h24.8c0,0-13.7,0.5-19.7,2.6S81.4,140,81.4,140z"/>
			
				<linearGradient id="SVGID_8_" gradientUnits="userSpaceOnUse" x1="76.12" y1="65.22" x2="128.83" y2="65.22" gradientTransform="matrix(1 0 0 -1 0 212)">
				<stop  offset="0" style="stop-color:#4C4C4C"/>
				<stop  offset="0.92" style="stop-color:#212121"/>
				<stop  offset="1" style="stop-color:#000000"/>
			</linearGradient>
			<path class="st8" d="M128.9,149.1c0,1.6-1.4,3-3,2.9H81.2c-1.6,0-3-1.3-3-2.9v-4.7c0-1.7,1.3-3,3-3h44.7c1.7,0,3,1.3,3,3
				L128.9,149.1z"/>
			
				<linearGradient id="SVGID_9_" gradientUnits="userSpaceOnUse" x1="75.33" y1="66.645" x2="100.81" y2="66.645" gradientTransform="matrix(1 0 0 -1 0 212)">
				<stop  offset="0" style="stop-color:#595959"/>
				<stop  offset="0.57" style="stop-color:#525252;stop-opacity:0.45"/>
				<stop  offset="1" style="stop-color:#4C4C4C;stop-opacity:0"/>
			</linearGradient>
			<path class="st9" d="M78.3,149.3v-4.8c0-1.7,1.3-3,3-3h30.7c0,0-18,0.6-25,3S78.3,149.3,78.3,149.3z"/>
			
				<linearGradient id="SVGID_10_" gradientUnits="userSpaceOnUse" x1="71.41" y1="51.275" x2="133.16" y2="51.275" gradientTransform="matrix(1 0 0 -1 0 212)">
				<stop  offset="0" style="stop-color:#4C4C4C"/>
				<stop  offset="0.92" style="stop-color:#212121"/>
				<stop  offset="1" style="stop-color:#000000"/>
			</linearGradient>
			<path class="st10" d="M133.3,168.8c0,1.9-1.6,3.5-3.5,3.4c0,0,0,0,0,0H77.4c-1.9,0-3.5-1.5-3.5-3.4c0,0,0,0,0,0v-16.1
				c0-1.9,1.6-3.5,3.5-3.4c0,0,0,0,0,0h52.4c1.9,0,3.5,1.5,3.5,3.4V168.8z"/>
			
				<linearGradient id="SVGID_11_" gradientUnits="userSpaceOnUse" x1="70.78" y1="58.22" x2="99.61" y2="58.22" gradientTransform="matrix(1 0 0 -1 0 212)">
				<stop  offset="0" style="stop-color:#595959"/>
				<stop  offset="0.57" style="stop-color:#525252;stop-opacity:0.45"/>
				<stop  offset="1" style="stop-color:#4C4C4C;stop-opacity:0"/>
			</linearGradient>
			<path class="st11" d="M73.9,158.3v-5.6c0-1.9,1.6-3.5,3.5-3.4c0,0,0,0,0,0h34.5c0,0-19.7,0.7-27.8,3.5S73.9,158.3,73.9,158.3z"/>
		</g>
	</g>
</g>
</svg>
