<?xml version="1.0" encoding="utf-8"?>
<!-- Generator: Adobe Illustrator 22.1.0, SVG Export Plug-In . SVG Version: 6.00 Build 0)  -->
<svg version="1.1" id="Ebene_1" xmlns="http://www.w3.org/2000/svg" xmlns:xlink="http://www.w3.org/1999/xlink" x="0px" y="0px"
	 viewBox="0 0 181 181" style="enable-background:new 0 0 181 181;" xml:space="preserve">
<style type="text/css">
	.st0{opacity:0.7;}
	.st1{fill:url(#SVGID_1_);}
	.st2{fill:#333333;}
	.st3{fill:url(#SVGID_2_);}
	.st4{fill:url(#SVGID_3_);}
	.st5{opacity:0.6;fill:url(#SVGID_4_);enable-background:new    ;}
	.st6{fill:url(#SVGID_5_);}
	.st7{fill:url(#SVGID_6_);}
	.st8{opacity:0.6;fill:url(#SVGID_7_);enable-background:new    ;}
	.st9{fill:url(#SVGID_8_);}
	.st10{opacity:0.6;fill:url(#SVGID_9_);enable-background:new    ;}
	.st11{fill:url(#SVGID_10_);}
	.st12{opacity:0.6;fill:url(#SVGID_11_);enable-background:new    ;}
</style>
<title>Rock</title>
<g>
	<g id="Ebene_2_1_">
		<g id="Objects">
			<g class="st0">
				
					<image style="overflow:visible;enable-background:new    ;" width="126" height="181" xlink:href="C14BEFBB.png"  transform="matrix(1 0 0 1 27.5 0)">
				</image>
			</g>
			
				<linearGradient id="SVGID_1_" gradientUnits="userSpaceOnUse" x1="67.73" y1="137.095" x2="111.07" y2="137.095" gradientTransform="matrix(1 0 0 -1 0 182)">
				<stop  offset="0" style="stop-color:#4C4C4C"/>
				<stop  offset="0.92" style="stop-color:#212121"/>
				<stop  offset="1" style="stop-color:#000000"/>
			</linearGradient>
			<polygon class="st1" points="103.2,35.4 101.2,41.8 96.3,41.8 97.8,35.4 89.9,35.4 88.9,35.4 81,35.4 82.5,41.8 77.7,41.8 
				75.6,35.4 67.7,35.4 77.5,54.4 88.9,54.4 89.9,54.4 101.3,54.4 111.1,35.4 			"/>
			<polygon class="st2" points="67.8,123.8 67.8,123.8 67.8,123.8 			"/>
			
				<linearGradient id="SVGID_2_" gradientUnits="userSpaceOnUse" x1="73.25" y1="99.9" x2="99.45" y2="99.9" gradientTransform="matrix(1 0 0 -1 0 182)">
				<stop  offset="0" style="stop-color:#707070"/>
				<stop  offset="0.22" style="stop-color:#4C4C4C"/>
				<stop  offset="0.88" style="stop-color:#212121"/>
				<stop  offset="1" style="stop-color:#0F0F0F"/>
			</linearGradient>
			<polygon class="st3" points="103.4,107.4 75.4,107.4 81.4,56.8 97.3,56.8 			"/>
			
				<linearGradient id="SVGID_3_" gradientUnits="userSpaceOnUse" x1="70.69" y1="76.27" x2="106.61" y2="76.27" gradientTransform="matrix(1 0 0 -1 0 182)">
				<stop  offset="0" style="stop-color:#4C4C4C"/>
				<stop  offset="0.92" style="stop-color:#212121"/>
				<stop  offset="1" style="stop-color:#000000"/>
			</linearGradient>
			<path class="st4" d="M106.7,107.3c0,1.1-0.9,2-2,2H74.2c-1.1,0-2-0.9-2-2v-3.2c0-1.1,0.9-2,2-2h30.5c1.1,0,2,0.9,2,2L106.7,107.3
				z"/>
			
				<linearGradient id="SVGID_4_" gradientUnits="userSpaceOnUse" x1="70.18" y1="77.235" x2="86.8" y2="77.235" gradientTransform="matrix(1 0 0 -1 0 182)">
				<stop  offset="0" style="stop-color:#595959"/>
				<stop  offset="0.57" style="stop-color:#525252;stop-opacity:0.45"/>
				<stop  offset="1" style="stop-color:#4C4C4C;stop-opacity:0"/>
			</linearGradient>
			<path class="st5" d="M72.1,107.4v-3.3c0-1.1,0.9-2,2-2h19.9c0,0-11.3,0.4-16,2S72.1,107.4,72.1,107.4z"/>
			
				<linearGradient id="SVGID_5_" gradientUnits="userSpaceOnUse" x1="71.92" y1="127.065" x2="100.29" y2="127.065" gradientTransform="matrix(1 0 0 -1 0 182)">
				<stop  offset="0" style="stop-color:#4C4C4C"/>
				<stop  offset="0.92" style="stop-color:#212121"/>
				<stop  offset="1" style="stop-color:#000000"/>
			</linearGradient>
			<path class="st6" d="M104.5,54.9c0,1-0.8,1.9-1.9,1.9l0,0H76.2c-1,0-1.9-0.8-1.9-1.9l0,0c0-1,0.8-1.9,1.9-1.9h26.5
				C103.7,53.1,104.5,53.9,104.5,54.9z"/>
			
				<linearGradient id="SVGID_6_" gradientUnits="userSpaceOnUse" x1="67.82" y1="69.6" x2="109.24" y2="69.6" gradientTransform="matrix(1 0 0 -1 0 182)">
				<stop  offset="0" style="stop-color:#4C4C4C"/>
				<stop  offset="0.92" style="stop-color:#212121"/>
				<stop  offset="1" style="stop-color:#000000"/>
			</linearGradient>
			<path class="st7" d="M109.3,114.3c0,1.3-1,2.3-2.3,2.3c0,0,0,0,0,0H71.8c-1.3,0-2.3-1-2.3-2.3v-3.7c0-1.3,1-2.3,2.3-2.3
				c0,0,0,0,0,0H107c1.3,0,2.3,1,2.3,2.3c0,0,0,0,0,0V114.3z"/>
			
				<linearGradient id="SVGID_7_" gradientUnits="userSpaceOnUse" x1="67.42" y1="70.72" x2="84.76" y2="70.72" gradientTransform="matrix(1 0 0 -1 0 182)">
				<stop  offset="0" style="stop-color:#595959"/>
				<stop  offset="0.57" style="stop-color:#525252;stop-opacity:0.45"/>
				<stop  offset="1" style="stop-color:#4C4C4C;stop-opacity:0"/>
			</linearGradient>
			<path class="st8" d="M69.5,114.3v-3.8c0-1.3,1-2.3,2.3-2.3c0,0,0,0,0,0h22.2c0,0-12.3,0.5-17.8,2.3S69.5,114.3,69.5,114.3z"/>
			
				<linearGradient id="SVGID_8_" gradientUnits="userSpaceOnUse" x1="64.69" y1="61.5249" x2="112.12" y2="61.5249" gradientTransform="matrix(1 0 0 -1 0 182)">
				<stop  offset="0" style="stop-color:#4C4C4C"/>
				<stop  offset="0.92" style="stop-color:#212121"/>
				<stop  offset="1" style="stop-color:#000000"/>
			</linearGradient>
			<path class="st9" d="M112.2,122.6c0,1.5-1.2,2.7-2.7,2.7c0,0,0,0,0,0H69.3c-1.5,0-2.7-1.2-2.7-2.7v-4.2c0-1.5,1.2-2.7,2.7-2.7
				h40.2c1.5,0,2.7,1.2,2.7,2.7L112.2,122.6z"/>
			
				<linearGradient id="SVGID_9_" gradientUnits="userSpaceOnUse" x1="63.99" y1="62.81" x2="86.91" y2="62.81" gradientTransform="matrix(1 0 0 -1 0 182)">
				<stop  offset="0" style="stop-color:#595959"/>
				<stop  offset="0.57" style="stop-color:#525252;stop-opacity:0.45"/>
				<stop  offset="1" style="stop-color:#4C4C4C;stop-opacity:0"/>
			</linearGradient>
			<path class="st10" d="M66.6,122.7v-4.3c0-1.5,1.2-2.7,2.7-2.7h27.6c0,0-16.2,0.6-22.5,2.7S66.6,122.7,66.6,122.7z"/>
			
				<linearGradient id="SVGID_10_" gradientUnits="userSpaceOnUse" x1="60.45" y1="49" x2="116.01" y2="49" gradientTransform="matrix(1 0 0 -1 0 182)">
				<stop  offset="0" style="stop-color:#4C4C4C"/>
				<stop  offset="0.92" style="stop-color:#212121"/>
				<stop  offset="1" style="stop-color:#000000"/>
			</linearGradient>
			<path class="st11" d="M116.1,140.2c0,1.7-1.4,3.1-3.1,3.1H65.8c-1.7,0-3.1-1.4-3.1-3.1c0,0,0,0,0,0v-14.4c0-1.7,1.4-3.1,3.1-3.1
				c0,0,0,0,0,0H113c1.7,0,3.1,1.4,3.1,3.1v0L116.1,140.2z"/>
			
				<linearGradient id="SVGID_11_" gradientUnits="userSpaceOnUse" x1="59.89" y1="55.23" x2="85.83" y2="55.23" gradientTransform="matrix(1 0 0 -1 0 182)">
				<stop  offset="0" style="stop-color:#595959"/>
				<stop  offset="0.57" style="stop-color:#525252;stop-opacity:0.45"/>
				<stop  offset="1" style="stop-color:#4C4C4C;stop-opacity:0"/>
			</linearGradient>
			<path class="st12" d="M62.7,130.8v-5c0-1.7,1.4-3.1,3.1-3.1c0,0,0,0,0,0h31.1c0,0-17.7,0.7-25,3.2
				C64.6,128.4,62.7,130.8,62.7,130.8z"/>
		</g>
	</g>
</g>
</svg>
